<?xml version="1.0" standalone="no"?>
<!DOCTYPE svg PUBLIC "-//W3C//DTD SVG 20010904//EN"
 "http://www.w3.org/TR/2001/REC-SVG-20010904/DTD/svg10.dtd">
<svg version="1.0" xmlns="http://www.w3.org/2000/svg"
 width="1720.000000pt" height="2561.000000pt" viewBox="0 0 1720.000000 2561.000000"
 preserveAspectRatio="xMidYMid meet">

<g transform="translate(0.000000,2561.000000) scale(0.100000,-0.100000)"
fill="#000000" stroke="none">
<path d="M7583 23982 c-110 -36 -192 -123 -236 -252 l-22 -65 -5 -1768 c-5
-1766 -5 -1768 -25 -1753 -30 23 -54 19 -65 -10 -6 -14 -14 -22 -20 -19 -5 3
-10 4 -10 1 0 -12 92 -58 105 -52 13 5 15 -129 15 -1130 l0 -1136 -35 22 c-20
13 -35 17 -35 10 0 -6 -4 -8 -10 -5 -5 3 -10 -2 -10 -12 0 -11 -6 -25 -12 -32
-10 -11 -10 -13 0 -7 6 4 12 3 12 -1 0 -14 60 -45 76 -39 12 5 14 -278 14
-2194 l0 -2198 150 -86 c82 -47 151 -86 153 -86 13 0 17 1165 17 5248 0 2542
3 4622 6 4622 4 0 91 -48 195 -107 131 -75 187 -112 184 -122 -5 -12 -3 -12
12 0 15 12 16 12 10 -4 -4 -11 -3 -16 3 -12 5 3 20 -1 33 -10 13 -8 26 -13 29
-10 2 3 5 -2 5 -10 0 -8 -4 -12 -9 -9 -4 3 -11 -3 -14 -13 -3 -10 -11 -28 -17
-40 -6 -13 -8 -26 -4 -29 3 -4 0 -19 -8 -35 -8 -15 -15 -38 -15 -51 0 -13 -9
-38 -20 -56 -14 -22 -20 -50 -20 -87 0 -29 -4 -57 -10 -60 -5 -3 -9 -16 -9
-28 1 -12 -6 -38 -14 -58 -14 -31 -14 -39 -3 -55 13 -17 14 -17 27 4 9 14 24
22 40 22 19 0 28 6 32 21 3 12 10 18 16 14 6 -3 14 0 17 9 7 18 71 49 84 41
17 -10 12 -85 -5 -85 -19 0 -21 -76 -2 -83 10 -4 10 -6 0 -6 -20 -1 -15 -38 6
-44 15 -4 20 -16 23 -63 2 -41 0 -62 -9 -67 -14 -9 -18 -27 -5 -27 4 0 19 11
34 25 15 14 31 25 35 25 5 0 17 14 27 30 24 41 39 28 33 -29 -3 -25 -3 -37 0
-26 3 11 8 22 12 25 4 3 15 26 25 52 21 57 34 68 64 57 25 -9 28 -29 10 -59
-19 -31 -5 -32 51 -4 50 25 77 26 53 2 -15 -15 -16 -48 -2 -48 6 0 10 4 10 10
0 5 6 7 14 4 13 -5 86 62 86 79 0 12 -28 8 -33 -5 -2 -7 -8 -10 -12 -6 -5 5 2
17 15 28 17 14 37 20 74 20 30 0 46 -4 38 -8 -7 -5 -10 -16 -6 -26 5 -14 9
-15 15 -4 8 11 11 11 18 -1 5 -7 14 -10 20 -7 20 12 34 -5 15 -18 -24 -18 -8
-23 54 -18 47 4 53 6 49 23 -6 23 11 36 19 15 6 -16 35 -23 33 -8 -3 22 16 52
33 52 16 0 18 -3 9 -13 -8 -11 -5 -16 15 -25 14 -7 36 -12 50 -12 17 0 23 -4
18 -12 -6 -10 -5 -10 7 -1 8 6 24 11 34 9 11 -2 26 4 33 13 11 14 12 13 3 -6
-8 -15 -18 -21 -32 -18 -13 3 -19 0 -16 -8 3 -7 10 -11 17 -9 7 1 4 -9 -7 -25
-24 -35 -55 -103 -77 -167 -15 -45 -16 -50 -1 -58 8 -5 13 -13 10 -19 -3 -5 1
-6 10 -3 14 6 14 8 -2 20 -17 13 -17 15 -1 27 10 8 16 16 13 19 -3 2 10 4 29
3 19 0 34 4 33 9 -1 5 13 13 31 18 17 5 32 13 32 18 0 7 99 50 117 50 3 0 -1
-8 -8 -17 -8 -9 -9 -14 -4 -12 6 3 41 20 79 38 l69 33 63 -32 c65 -32 153 -53
140 -32 -3 5 0 13 6 15 8 4 7 6 -4 6 -9 1 -20 -3 -23 -9 -3 -5 -14 -10 -23
-10 -11 1 -8 6 11 16 15 8 37 12 47 9 12 -4 20 -2 20 4 0 6 6 11 14 11 8 0 38
11 68 25 29 14 61 22 72 19 10 -3 16 -2 13 2 -3 5 13 10 35 11 25 2 47 10 57
21 17 21 87 60 77 44 -6 -10 23 -26 32 -17 3 3 -1 5 -9 5 -8 1 -3 7 11 16 l25
15 -25 -6 c-22 -5 -23 -4 -7 5 10 7 24 9 32 6 9 -3 12 0 8 10 -7 18 30 19 45
2 5 -7 11 -71 12 -143 1 -71 3 -143 4 -160 1 -16 3 -80 4 -141 l2 -111 53 -36
c153 -106 240 -253 268 -457 6 -44 19 -86 31 -102 l19 -28 77 41 c91 48 90 48
73 58 -9 6 -10 11 -2 15 6 4 11 2 11 -3 0 -16 36 -13 50 3 6 8 27 20 46 26 19
6 34 15 34 20 0 10 142 80 161 80 9 0 8 4 0 14 -9 11 -9 16 0 22 8 4 9 3 5 -4
-4 -7 -3 -12 3 -12 5 0 12 6 14 13 4 7 6 6 6 -4 1 -9 8 -22 16 -29 8 -7 13
-16 10 -20 -3 -5 -1 -11 5 -15 6 -4 21 -27 34 -53 l24 -47 801 -459 801 -459
0 -786 c1 -4033 -1 -9225 -4 -9228 -2 -3 -28 9 -58 26 -30 17 -58 28 -63 24
-4 -5 -5 -3 -1 4 9 17 -32 27 -49 13 -8 -7 -15 -21 -15 -31 0 -20 26 -40 124
-94 l68 -38 -5 -281 c-6 -361 -25 -453 -149 -736 -93 -212 -154 -302 -321
-472 -171 -174 -338 -283 -493 -322 -85 -22 -217 -21 -286 2 -45 15 -1386 770
-1711 964 -53 32 -100 58 -102 58 -3 0 -5 -105 -5 -234 l0 -235 103 -57 c56
-32 696 -400 1422 -819 726 -419 1348 -777 1382 -794 132 -66 287 -78 388 -30
67 31 135 101 169 172 57 121 56 105 56 1383 0 776 3 1174 10 1174 13 0 13 37
0 42 -7 2 -10 367 -10 1106 0 879 -2 1102 -12 1102 -25 1 -233 128 -236 144
-4 20 15 46 33 46 8 0 56 -25 109 -55 52 -30 97 -55 101 -55 3 0 4 1839 2
4088 -2 3862 -3 4091 -20 4152 -58 215 -144 404 -255 559 -88 124 -226 262
-332 333 -100 66 -4542 2631 -4615 2664 -118 54 -237 67 -332 36z m647 -1290
c0 -3 -3 -2 -7 1 -3 4 -17 0 -30 -8 -21 -14 -23 -14 -23 0 0 9 4 14 9 10 5 -3
12 -1 16 5 3 5 -1 10 -9 10 -9 0 -13 6 -10 14 4 12 10 10 30 -7 13 -11 24 -23
24 -25z m173 -462 c-3 -11 -9 -23 -14 -26 -10 -6 -12 29 -2 39 13 13 21 7 16
-13z m27 -44 c0 -9 -30 -14 -35 -6 -4 6 3 10 14 10 12 0 21 -2 21 -4z m510
-51 c0 -8 -4 -15 -10 -15 -5 0 -10 7 -10 15 0 8 5 15 10 15 6 0 10 -7 10 -15z
m-629 -28 c-10 -9 -11 -8 -5 6 3 10 9 15 12 12 3 -3 0 -11 -7 -18z m-54 -39
c-3 -8 -6 -5 -6 6 -1 11 2 17 5 13 3 -3 4 -12 1 -19z m2693 -827 c0 -5 -7 -12
-16 -15 -14 -5 -15 -4 -4 9 14 17 20 19 20 6z m-215 -131 c-3 -5 -12 -10 -18
-10 -7 0 -6 4 3 10 19 12 23 12 15 0z m-85 -48 c0 -5 -11 -14 -25 -20 -39 -18
-44 -14 -10 7 36 23 35 23 35 13z m-120 -52 c0 -5 -5 -10 -11 -10 -5 0 -7 5
-4 10 3 6 8 10 11 10 2 0 4 -4 4 -10z m2190 -8640 c-10 -6 -11 -10 -2 -10 6 0
12 -5 12 -11 0 -8 -5 -8 -15 1 -16 13 -11 30 8 30 7 0 6 -4 -3 -10z m45 -30
c10 -16 -13 -39 -35 -37 -19 1 -36 25 -25 35 3 3 5 1 5 -5 0 -6 11 -10 25 -9
27 1 33 11 13 19 -10 4 -10 6 -1 6 6 1 15 -4 18 -9z"/>
<path d="M8055 22780 c-4 -6 -1 -9 7 -8 7 2 12 -3 11 -9 -3 -14 13 -18 21 -5
2 4 -4 13 -14 20 -13 7 -21 8 -25 2z"/>
<path d="M8016 22765 c4 -8 11 -15 16 -15 6 0 5 6 -2 15 -7 8 -14 15 -16 15
-2 0 -1 -7 2 -15z"/>
<path d="M8010 22150 c0 -22 -4 -40 -10 -40 -5 0 -10 -18 -10 -40 0 -22 5 -40
10 -40 6 0 10 18 10 40 0 22 5 40 10 40 6 0 10 18 10 40 0 22 -4 40 -10 40 -5
0 -10 -18 -10 -40z"/>
<path d="M8041 22158 c0 -28 2 -30 9 -13 12 28 12 45 0 45 -5 0 -10 -15 -9
-32z"/>
<path d="M8070 22152 c0 -35 -3 -42 -20 -42 -17 0 -20 -7 -20 -40 0 -29 4 -40
15 -40 11 0 15 11 15 36 0 31 2 35 15 24 12 -10 13 -5 8 42 -7 66 -13 75 -13
20z"/>
<path d="M8090 22175 c0 -8 2 -15 4 -15 2 0 6 7 10 15 3 8 1 15 -4 15 -6 0
-10 -7 -10 -15z"/>
<path d="M8415 22100 c3 -5 8 -10 11 -10 2 0 4 5 4 10 0 6 -5 10 -11 10 -5 0
-7 -4 -4 -10z"/>
<path d="M9991 22091 c-10 -6 -9 -10 3 -14 8 -3 18 -2 21 3 8 13 -9 20 -24 11z"/>
<path d="M8878 22053 c7 -3 16 -2 19 1 4 3 -2 6 -13 5 -11 0 -14 -3 -6 -6z"/>
<path d="M7960 21990 c0 -22 5 -40 10 -40 6 0 10 18 10 40 0 22 -4 40 -10 40
-5 0 -10 -18 -10 -40z"/>
<path d="M9776 22011 c-4 -5 3 -7 14 -4 23 6 26 13 6 13 -8 0 -17 -4 -20 -9z"/>
<path d="M8252 21970 c0 -14 2 -19 5 -12 2 6 2 18 0 25 -3 6 -5 1 -5 -13z"/>
<path d="M8301 21954 c0 -11 3 -14 6 -6 3 7 2 16 -1 19 -3 4 -6 -2 -5 -13z"/>
<path d="M9228 21913 c7 -3 16 -2 19 1 4 3 -2 6 -13 5 -11 0 -14 -3 -6 -6z"/>
<path d="M9125 21850 c-3 -6 1 -7 9 -4 18 7 21 14 7 14 -6 0 -13 -4 -16 -10z"/>
<path d="M9068 21833 c7 -3 16 -2 19 1 4 3 -2 6 -13 5 -11 0 -14 -3 -6 -6z"/>
<path d="M7880 21670 c0 -22 5 -40 10 -40 6 0 10 18 10 40 0 22 -4 40 -10 40
-5 0 -10 -18 -10 -40z"/>
<path d="M7710 21592 c0 -6 -11 -24 -24 -40 -17 -19 -21 -29 -11 -29 8 0 13 3
12 6 -1 3 7 19 17 34 10 15 16 30 12 34 -3 3 -6 1 -6 -5z"/>
<path d="M7848 21508 c0 -24 -1 -48 -1 -55 0 -6 -5 -9 -12 -7 -7 3 -16 1 -20
-5 -3 -7 3 -11 15 -11 13 0 24 8 27 20 3 11 9 20 14 20 5 0 9 18 9 40 0 29 -4
40 -15 40 -11 0 -15 -12 -17 -42z"/>
<path d="M7900 21526 c0 -19 4 -23 20 -19 11 3 20 14 20 24 0 12 -7 19 -20 19
-14 0 -20 -7 -20 -24z"/>
<path d="M8061 21484 c0 -11 3 -14 6 -6 3 7 2 16 -1 19 -3 4 -6 -2 -5 -13z"/>
<path d="M7676 21481 c-3 -5 1 -11 9 -14 9 -4 12 -1 8 9 -6 16 -10 17 -17 5z"/>
<path d="M7744 21458 c-4 -6 -2 -14 4 -16 7 -2 10 -8 7 -13 -4 -5 1 -6 9 -3
19 7 21 25 4 22 -7 -2 -12 3 -10 10 3 15 -5 16 -14 0z"/>
<path d="M7876 21436 c-10 -18 -16 -42 -14 -52 3 -13 9 -5 17 24 10 36 16 43
32 39 12 -3 19 0 19 9 0 27 -36 14 -54 -20z"/>
<path d="M8063 21421 c-10 -11 -27 -31 -37 -46 l-19 -28 -17 23 -17 22 -12
-31 c-14 -31 -8 -67 8 -57 5 4 11 2 13 -3 1 -5 34 -27 73 -50 50 -28 72 -36
77 -28 5 8 8 7 8 -3 0 -21 54 -52 76 -43 12 4 15 3 10 -5 -4 -7 -2 -12 3 -12
6 0 11 9 11 20 0 17 -4 18 -25 10 -17 -6 -25 -6 -25 1 0 6 -5 7 -12 3 -7 -4
-8 -3 -4 4 4 6 13 9 21 5 8 -3 15 0 15 6 0 9 5 9 21 0 16 -8 20 -17 16 -39 -6
-27 2 -35 37 -38 5 0 13 -8 18 -17 8 -13 12 -14 26 -3 9 7 13 8 9 2 -3 -6 6
-20 22 -31 20 -15 28 -17 28 -8 0 8 -4 12 -8 10 -3 -3 -13 2 -20 11 -10 13
-10 17 0 24 11 6 11 9 0 13 -11 4 -11 6 -1 6 10 1 10 5 0 24 l-12 22 -7 -25
c-6 -23 -7 -22 -9 10 -1 33 -2 34 -11 11 -5 -14 -7 -31 -4 -39 5 -13 3 -13
-10 -2 -9 8 -14 22 -12 31 3 10 0 17 -6 16 -6 -1 -15 7 -21 18 -11 20 -41 26
-64 12 -6 -5 -12 -4 -12 2 0 5 -9 8 -19 6 -18 -3 -19 0 -10 21 5 14 9 42 9 63
0 20 5 42 11 48 7 7 7 22 1 44 -9 34 -9 34 -19 -25 -6 -32 -9 -66 -8 -75 1 -9
0 -10 -2 -3 -5 14 -33 16 -33 2 0 -5 -8 -10 -17 -10 -17 1 -17 2 0 14 17 13
17 19 6 75 -7 34 -17 61 -21 61 -4 0 -16 -9 -25 -19z m14 -127 c-3 -3 -12 -4
-19 -1 -8 3 -5 6 6 6 11 1 17 -2 13 -5z m-2 -22 c-3 -3 0 -11 6 -19 17 -20 5
-16 -14 5 -15 16 -15 19 -2 19 8 0 13 -3 10 -5z"/>
<path d="M7770 21416 c0 -2 7 -7 16 -10 8 -3 12 -2 9 4 -6 10 -25 14 -25 6z"/>
<path d="M8346 19582 c-3 -5 1 -9 9 -9 8 0 12 4 9 9 -3 4 -7 8 -9 8 -2 0 -6
-4 -9 -8z"/>
<path d="M8655 19391 c-3 -5 -2 -12 3 -15 5 -3 9 1 9 9 0 17 -3 19 -12 6z"/>
<path d="M8690 19375 c-6 -8 -9 -19 -5 -25 3 -5 1 -10 -4 -10 -6 0 -11 6 -11
13 0 6 -5 4 -11 -6 -8 -14 -8 -22 1 -30 8 -9 9 -7 4 7 -6 16 -5 17 16 6 15 -8
20 -8 16 -1 -4 6 -3 11 3 11 5 0 12 8 14 18 4 16 5 16 6 -1 0 -10 6 -15 11
-12 15 9 12 19 -9 32 -15 10 -22 9 -31 -2z m13 -10 c-3 -9 -8 -14 -10 -11 -3
3 -2 9 2 15 9 16 15 13 8 -4z"/>
<path d="M8455 19360 c3 -5 8 -10 11 -10 2 0 4 5 4 10 0 6 -5 10 -11 10 -5 0
-7 -4 -4 -10z"/>
<path d="M8526 19354 c-5 -14 -9 -14 -23 -3 -9 8 -14 9 -10 2 4 -6 1 -14 -5
-16 -8 -3 -6 -6 5 -6 9 -1 17 -5 17 -9 0 -4 9 -8 21 -8 17 0 18 2 5 11 -12 9
-12 15 -4 23 6 6 9 14 6 17 -3 3 -8 -2 -12 -11z"/>
<path d="M8740 19340 c-8 -5 -19 -6 -25 -2 -5 3 -5 -1 2 -9 10 -12 8 -15 -8
-16 -10 -1 -31 -11 -45 -22 -33 -26 -51 -27 -33 -3 13 16 13 16 -5 2 -18 -14
-19 -13 -13 3 4 11 3 16 -3 12 -13 -8 -7 -42 10 -58 8 -7 11 -8 7 -1 -4 7 0
14 7 17 10 4 14 0 11 -12 -4 -20 38 -46 68 -42 10 1 17 -4 17 -15 0 -10 3 -15
6 -11 3 3 14 -3 25 -14 10 -10 25 -16 33 -13 9 3 19 -3 26 -16 7 -13 17 -19
26 -16 8 3 13 2 10 -3 -7 -11 22 -23 36 -14 7 3 8 1 4 -5 -4 -7 4 -17 21 -24
15 -7 30 -15 33 -18 3 -4 1040 -601 1263 -727 4 -2 7 40 7 94 l0 98 -354 203
c-195 111 -358 202 -364 202 -6 0 -12 4 -14 8 -6 15 -363 216 -384 216 -12 0
-20 5 -18 11 2 5 -14 20 -37 32 l-40 22 -8 -21 c-7 -18 -9 -19 -14 -5 -4 10
-2 17 3 17 6 0 10 5 10 11 0 5 -4 8 -9 5 -4 -3 -16 3 -26 14 -17 19 -19 19
-37 3 -10 -9 -21 -13 -25 -9 -5 4 0 12 11 18 17 9 16 12 -10 29 -15 10 -31 16
-36 13 -4 -3 -8 0 -8 6 0 7 -7 10 -15 6 -8 -3 -14 -2 -14 2 3 19 -2 23 -15 13
-11 -9 -16 -9 -22 0 -5 8 -3 10 7 4 10 -6 11 -5 3 4 -14 15 -48 21 -64 11z
m40 -15 c0 -12 -19 -12 -23 0 -4 9 -1 12 9 8 7 -3 14 -7 14 -8z m124 -53 c3
-5 -1 -9 -9 -9 -8 0 -12 4 -9 9 3 4 7 8 9 8 2 0 6 -4 9 -8z m-34 -18 c0 -8
-19 -13 -24 -6 -3 5 1 9 9 9 8 0 15 -2 15 -3z m-95 -43 c3 -5 0 -13 -6 -17 -7
-4 -9 -3 -5 4 3 5 0 13 -6 15 -9 4 -10 6 -1 6 6 1 14 -3 18 -8z m251 -36 c1
-8 -1 -17 -5 -19 -4 -3 -7 6 -7 19 0 25 8 25 12 0z m-67 -51 c4 3 8 -2 8 -10
0 -10 -4 -11 -11 -4 -6 6 -16 4 -30 -8 -20 -17 -20 -17 0 10 10 14 21 22 22
17 2 -5 7 -7 11 -5z"/>
<path d="M8561 19284 c14 -17 32 -19 27 -2 -2 6 -12 12 -22 14 -14 2 -15 0 -5
-12z"/>
<path d="M8170 17273 l1 -98 1377 -796 c757 -438 1379 -795 1381 -793 2 2 -2
11 -10 21 -9 11 -10 14 -1 9 9 -5 12 12 12 77 l0 83 -1347 779 c-742 429
-1363 788 -1380 798 l-33 19 0 -99z"/>
<path d="M8170 14963 l0 -98 299 -169 c165 -93 303 -169 308 -170 4 0 17 -8
27 -18 18 -17 31 -22 39 -15 2 1 18 -10 36 -26 18 -15 37 -25 42 -22 12 8 -13
45 -31 45 -13 0 -13 -1 0 -11 10 -7 11 -9 2 -7 -20 5 -16 21 7 30 16 5 21 3
21 -8 0 -8 4 -13 9 -10 5 3 8 -2 7 -11 0 -10 7 -19 18 -21 11 -2 16 0 12 7 -4
6 4 15 20 21 15 6 33 18 39 27 13 18 56 23 67 8 5 -6 8 -4 8 6 0 9 -11 21 -25
27 -30 14 -38 15 -31 4 2 -4 -4 -13 -15 -20 -15 -10 -19 -10 -17 0 2 7 -3 12
-9 11 -7 -2 -13 2 -13 7 0 14 27 12 33 -2 3 -7 6 -3 6 10 1 12 -5 23 -11 24
-7 0 -20 2 -28 3 -18 2 -45 -11 -70 -32 -21 -18 -72 -24 -67 -8 2 5 14 10 26
9 11 0 21 2 21 6 0 9 72 36 84 32 30 -9 -39 31 -369 218 -198 112 -379 214
-402 227 l-43 25 0 -99z m821 -440 c13 -16 12 -17 -3 -4 -17 13 -22 21 -14 21
2 0 10 -8 17 -17z m-21 -19 c0 -8 -19 -13 -24 -6 -3 5 1 9 9 9 8 0 15 -2 15
-3z"/>
<path d="M8976 14410 c13 -11 18 -12 21 -2 3 6 9 10 14 6 5 -3 9 -1 9 4 0 5
-13 9 -30 8 -27 -1 -28 -2 -14 -16z"/>
<path d="M9085 14380 c-4 -6 -10 -8 -15 -5 -5 3 -11 1 -14 -4 -8 -13 22 -7 36
7 7 7 9 12 6 12 -4 0 -10 -5 -13 -10z"/>
<path d="M2850 13970 c-8 -5 -11 -12 -7 -17 5 -4 11 -3 15 3 4 6 14 14 22 17
13 5 13 5 0 6 -8 0 -22 -3 -30 -9z"/>
<path d="M2705 13880 c-3 -5 -1 -10 4 -10 6 0 11 5 11 10 0 6 -2 10 -4 10 -3
0 -8 -4 -11 -10z"/>
<path d="M4453 13255 c0 -7 6 -11 14 -8 7 3 13 6 13 8 0 2 -6 5 -13 8 -8 3
-14 -1 -14 -8z"/>
<path d="M4516 13218 c3 -5 10 -6 15 -3 13 9 11 12 -6 12 -8 0 -12 -4 -9 -9z"/>
<path d="M4570 13200 c0 -6 5 -8 10 -5 6 3 10 2 10 -4 0 -5 -4 -11 -9 -13 -5
-1 2 -16 16 -33 14 -16 22 -24 17 -16 -5 10 -3 13 9 8 8 -3 17 0 20 6 3 8 -5
12 -22 12 -21 0 -26 5 -26 24 0 13 -6 26 -12 28 -7 3 -13 0 -13 -7z"/>
<path d="M4531 13191 c-9 -6 -10 -11 -2 -15 6 -4 11 -2 11 4 0 6 5 8 12 4 7
-4 8 -3 4 4 -8 14 -7 14 -25 3z"/>
<path d="M4779 13071 c0 -3 -2 -15 -4 -26 -4 -21 13 -48 25 -40 4 3 13 -2 20
-10 7 -8 16 -12 21 -9 5 3 12 -2 15 -11 5 -12 10 -13 20 -4 8 6 11 16 8 21 -4
6 2 5 14 -1 16 -8 21 -7 26 5 9 24 7 28 -8 15 -12 -10 -17 -8 -27 10 l-12 23
-21 -25 c-12 -13 -20 -22 -19 -20 1 2 -4 13 -12 25 -18 24 -19 36 -4 36 5 0 7
-6 3 -12 -4 -7 -4 -10 1 -6 4 4 14 3 22 -3 9 -8 13 -8 13 -1 0 20 -78 52 -81
33z m26 -11 c-4 -6 1 -23 10 -38 l16 -27 -20 24 c-12 13 -21 17 -21 10 0 -7
-3 -10 -6 -7 -6 7 13 48 22 48 3 0 2 -5 -1 -10z"/>
<path d="M4830 13030 c0 -5 5 -10 11 -10 5 0 7 5 4 10 -3 6 -8 10 -11 10 -2 0
-4 -4 -4 -10z"/>
<path d="M4937 13003 c-10 -10 -8 -25 2 -18 5 3 12 1 16 -5 4 -6 12 -7 18 -4
7 4 9 4 5 -1 -10 -11 -77 -12 -71 -1 3 5 0 7 -7 4 -24 -8 -21 -25 5 -32 14 -4
25 -11 25 -17 0 -6 5 -7 10 -4 6 3 10 2 10 -3 0 -13 62 -34 71 -25 4 5 10 18
13 30 5 17 1 26 -18 38 -14 9 -32 18 -41 19 -9 1 -20 8 -24 14 -4 7 -10 9 -14
5z m66 -47 c4 -10 1 -13 -9 -9 -15 6 -19 23 -5 23 5 0 11 -7 14 -14z m-5 -41
c-3 -3 -9 2 -12 12 -6 14 -5 15 5 6 7 -7 10 -15 7 -18z"/>
<path d="M1960 10450 c0 -573 0 -580 20 -580 11 0 20 6 20 14 0 8 9 18 20 21
11 3 25 15 30 26 6 10 17 19 25 19 8 0 15 5 15 10 0 6 6 10 13 10 7 0 37 24
67 53 59 57 86 73 94 54 3 -9 5 -9 5 1 1 6 6 12 12 12 5 0 8 -4 4 -9 -3 -5 -1
-12 5 -16 6 -4 7 -12 3 -18 -4 -7 0 -6 10 2 20 16 22 22 5 18 -7 -1 -12 4 -10
11 1 7 -7 21 -19 31 -17 14 -19 20 -9 26 8 5 11 4 6 -3 -4 -7 1 -10 14 -9 21
1 28 17 8 17 -9 0 -8 4 2 10 13 8 12 10 -2 10 -10 0 -18 5 -18 11 0 6 7 9 15
5 10 -3 15 1 15 13 0 10 7 24 15 31 17 14 85 20 85 8 0 -5 7 -8 15 -8 12 0 13
3 3 19 -7 11 -17 17 -23 13 -18 -11 -34 -10 -29 2 3 7 18 12 33 12 22 0 28 -3
24 -15 -5 -13 -3 -13 7 -4 7 6 19 9 28 6 10 -4 13 -2 8 5 -3 6 2 13 11 16 10
4 37 23 59 44 23 20 55 46 70 57 16 11 47 37 68 58 22 20 45 37 52 37 15 0 37
34 28 43 -3 3 3 3 14 0 14 -3 24 2 31 16 9 17 9 21 -3 21 -8 0 -17 -6 -19 -12
-3 -8 -6 -7 -6 4 -1 9 -10 20 -21 23 -11 3 -20 11 -20 16 0 5 -5 9 -11 9 -5 0
-7 -6 -4 -12 4 -7 -7 2 -24 20 -17 17 -38 32 -46 32 -8 0 -15 5 -15 10 0 6 -9
10 -20 10 -11 0 -20 5 -20 10 0 6 -8 10 -18 10 -10 0 -24 9 -32 20 -8 11 -22
20 -32 20 -10 0 -18 5 -18 10 0 6 -6 10 -13 10 -7 0 -23 9 -35 20 -12 11 -28
20 -37 20 -8 0 -15 5 -15 10 0 6 -9 10 -20 10 -11 0 -20 5 -20 10 0 6 -6 10
-13 10 -7 0 -22 8 -33 18 -10 10 -54 35 -96 56 -43 21 -80 42 -83 47 -3 4 -34
22 -69 39 -35 16 -69 37 -76 45 -7 8 -16 15 -21 15 -5 0 -9 -254 -9 -580z
m808 85 c-3 -3 -9 2 -12 12 -6 14 -5 15 5 6 7 -7 10 -15 7 -18z m-111 -20
c-17 -15 -33 -22 -40 -18 -8 5 -4 9 10 11 12 2 27 10 33 18 7 8 15 14 19 14 3
0 -7 -12 -22 -25z m-80 -60 c-7 -14 -20 -25 -31 -25 -16 0 -16 2 5 25 31 32
40 32 26 0z m-94 -72 c-7 -3 -13 -11 -13 -19 0 -8 -10 -14 -22 -14 -22 1 -22
2 7 25 16 13 32 21 35 18 3 -3 -1 -8 -7 -10z m-103 -77 c0 -3 -4 -8 -10 -11
-5 -3 -10 -1 -10 4 0 6 5 11 10 11 6 0 10 -2 10 -4z m-36 -31 c-6 -16 -24 -21
-24 -7 0 11 11 22 21 22 5 0 6 -7 3 -15z m-87 -127 c-3 -8 -6 -5 -6 6 -1 11 2
17 5 13 3 -3 4 -12 1 -19z m-77 -3 c0 -9 -6 -12 -16 -8 -13 5 -13 7 -2 14 17
11 18 11 18 -6z m-190 -157 c0 -16 -3 -19 -11 -11 -6 6 -8 16 -5 22 11 17 16
13 16 -11z m-3 -100 c-3 -7 -5 -2 -5 12 0 14 2 19 5 13 2 -7 2 -19 0 -25z"/>
<path d="M11338 10889 c-26 -15 -22 -45 10 -67 49 -34 176 -104 198 -108 26
-5 48 19 40 43 -4 10 -54 45 -112 78 -126 71 -115 67 -136 54z"/>
<path d="M11720 10655 c-6 -8 -9 -22 -6 -32 7 -23 132 -96 148 -87 6 4 8 3 5
-3 -3 -5 12 -20 33 -32 32 -18 44 -20 60 -11 43 23 21 51 -90 117 -111 66
-130 72 -150 48z"/>
<path d="M12111 10422 c-11 -21 3 -52 24 -52 7 0 15 -4 17 -8 6 -15 80 -52 90
-46 7 4 8 2 4 -4 -4 -7 -2 -12 4 -12 7 0 23 -9 37 -20 43 -34 103 -18 87 24
-6 16 -76 61 -90 57 -4 -2 -10 2 -13 7 -10 17 -111 72 -131 72 -11 0 -24 -8
-29 -18z"/>
<path d="M2451 10234 c0 -11 3 -14 6 -6 3 7 2 16 -1 19 -3 4 -6 -2 -5 -13z"/>
<path d="M2466 10211 c-3 -5 1 -11 9 -15 9 -3 15 0 15 9 0 16 -16 20 -24 6z"/>
<path d="M2510 10176 c0 -2 7 -7 16 -10 8 -3 12 -2 9 4 -6 10 -25 14 -25 6z"/>
<path d="M2261 10051 c-8 -5 -9 -11 -3 -15 5 -3 12 1 16 9 6 17 6 18 -13 6z"/>
<path d="M15402 9064 c-52 -18 -86 -46 -115 -94 -11 -19 -26 -38 -31 -42 -6
-4 -7 -8 -3 -8 4 0 3 -9 -3 -21 -11 -20 -15 -34 -23 -94 -7 -52 12 -207 33
-280 32 -105 116 -282 170 -355 73 -99 252 -265 262 -243 4 10 71 54 127 84
24 13 52 31 62 39 33 28 44 35 92 59 26 13 52 30 58 38 6 7 15 13 20 13 5 0
36 17 69 37 71 45 71 46 35 189 -47 186 -168 393 -296 504 -35 30 -71 63 -81
73 -10 9 -22 17 -26 17 -5 0 -19 10 -32 23 -14 12 -26 21 -27 19 -2 -1 -27 10
-56 24 -67 33 -172 41 -235 18z m56 -370 c42 -24 65 -63 70 -115 4 -40 1 -49
-17 -58 -67 -36 -168 130 -106 175 23 17 21 17 53 -2z m250 -144 c42 -26 79
-102 66 -138 -15 -41 -39 -50 -71 -26 -66 49 -98 149 -55 173 23 14 22 14 60
-9z m265 -159 c48 -44 61 -139 22 -155 -43 -16 -113 54 -122 122 -4 33 -2 42
17 55 26 18 45 13 83 -22z"/>
<path d="M6450 9007 c0 -2 39 -84 86 -182 l85 -178 33 32 c25 24 35 28 44 19
18 -18 15 -40 -14 -81 -14 -21 -24 -40 -22 -43 3 -2 53 40 112 93 59 53 103
99 99 103 -12 10 -412 240 -418 240 -3 0 -5 -2 -5 -3z"/>
<path d="M4243 8016 c-44 -13 -107 -38 -138 -56 -86 -49 -195 -141 -248 -209
-71 -89 -90 -140 -90 -236 -1 -99 20 -171 79 -277 24 -44 44 -83 44 -87 1 -3
20 -31 43 -61 53 -69 110 -99 203 -107 95 -8 113 7 120 97 7 94 24 210 36 239
13 35 48 71 68 71 10 0 29 -9 43 -20 55 -44 60 -18 18 100 -17 49 -24 83 -18
87 5 3 40 53 78 110 73 112 115 223 104 273 -20 92 -167 125 -342 76z"/>
<path d="M3334 6665 c-4 -8 -10 -13 -14 -10 -5 3 -11 1 -14 -4 -4 -5 -2 -12 3
-15 5 -4 12 -2 16 4 4 6 11 7 17 4 7 -5 9 -1 5 9 -4 10 0 17 11 20 15 4 15 5
-1 6 -10 0 -20 -6 -23 -14z"/>
<path d="M3370 6651 c0 -5 -3 -17 -6 -25 -4 -12 -2 -15 9 -11 8 4 21 -1 30 -9
20 -20 47 -21 47 -1 0 8 -18 24 -40 35 -22 11 -40 16 -40 11z"/>
<path d="M3450 6641 c0 -23 36 -32 103 -24 33 4 51 2 56 -6 5 -8 69 -15 192
-21 101 -5 213 -14 249 -19 36 -5 203 -17 373 -27 169 -10 307 -22 307 -26 0
-4 40 -8 89 -8 49 0 158 -5 242 -11 123 -8 153 -8 160 3 6 10 15 10 38 1 17
-6 30 -8 29 -5 -2 20 3 32 12 27 6 -4 7 1 3 11 -4 10 -2 15 4 11 5 -3 10 1 10
10 0 13 -4 12 -18 -5 -20 -26 -71 -28 -222 -12 -51 5 -202 15 -337 21 -135 6
-247 15 -250 18 -10 12 -52 32 -46 22 8 -13 -292 -10 -313 3 -9 6 -12 5 -7 -2
4 -7 -12 -10 -52 -10 -56 1 -58 2 -54 24 2 13 9 21 15 17 6 -4 7 -1 2 7 -6 10
-10 10 -20 -3 -10 -14 -34 -15 -236 -6 -123 5 -243 14 -266 19 -57 14 -63 13
-63 -9z m463 -38 c-13 -2 -33 -2 -45 0 -13 2 -3 4 22 4 25 0 35 -2 23 -4z
m1120 -80 c-13 -2 -33 -2 -45 0 -13 2 -3 4 22 4 25 0 35 -2 23 -4z"/>
<path d="M4043 6624 c-17 -18 -16 -23 5 -20 9 2 16 6 15 10 -5 21 -9 23 -20
10z"/>
<path d="M3297 6614 c3 -7 9 -14 14 -14 14 0 10 17 -5 23 -10 4 -13 1 -9 -9z"/>
<path d="M3270 6612 c0 -6 -16 -25 -36 -44 -54 -50 -104 -118 -98 -133 4 -9
-23 -42 -65 -84 -39 -39 -71 -75 -71 -81 0 -6 -22 -33 -50 -60 -27 -27 -50
-54 -50 -60 0 -6 -22 -33 -50 -60 -27 -27 -50 -54 -50 -60 0 -6 -18 -28 -40
-49 -22 -21 -40 -43 -40 -49 0 -7 -13 -25 -30 -40 -16 -16 -30 -33 -30 -38 0
-5 -14 -23 -30 -41 -17 -18 -30 -36 -30 -40 0 -4 -14 -22 -30 -40 -17 -18 -30
-36 -30 -40 0 -4 -18 -26 -40 -48 -21 -22 -39 -44 -40 -50 0 -5 -14 -24 -30
-42 -17 -18 -30 -36 -30 -40 0 -4 -18 -26 -40 -48 -21 -22 -39 -44 -40 -50 0
-5 -14 -24 -30 -42 -17 -18 -30 -36 -30 -41 0 -5 -9 -17 -20 -27 -11 -10 -20
-26 -20 -35 0 -9 9 -26 20 -38 11 -12 20 -27 20 -35 0 -14 31 -47 43 -47 4 0
143 136 310 303 166 166 315 308 330 316 15 8 27 18 27 23 0 4 6 8 14 8 7 0
27 14 44 30 18 17 36 30 40 30 5 0 22 12 38 28 16 15 43 34 59 42 17 8 43 23
58 33 16 11 31 17 34 13 3 -3 0 -25 -6 -50 -6 -25 -11 -56 -11 -70 0 -14 -4
-26 -10 -26 -5 0 -10 -22 -10 -50 0 -27 -4 -50 -10 -50 -5 0 -10 -13 -10 -30
0 -16 -4 -30 -10 -30 -5 0 -10 -18 -10 -40 0 -22 -4 -40 -10 -40 -5 0 -10 -18
-10 -40 0 -22 -4 -40 -10 -40 -5 0 -10 -18 -10 -40 0 -22 -4 -40 -10 -40 -5 0
-10 -18 -10 -40 0 -22 -4 -40 -10 -40 -5 0 -10 -18 -10 -40 0 -22 -4 -40 -10
-40 -5 0 -10 -22 -10 -50 0 -27 -4 -50 -10 -50 -5 0 -10 -11 -10 -24 0 -14 -4
-28 -10 -31 -5 -3 -10 -24 -10 -46 0 -21 -4 -39 -10 -39 -5 0 -10 -20 -10 -44
0 -25 -4 -48 -10 -51 -5 -3 -10 -21 -10 -40 0 -19 -4 -37 -10 -40 -5 -3 -10
-21 -10 -40 0 -19 -5 -37 -11 -40 -6 -4 -8 -12 -6 -19 5 -14 -37 -68 -711
-901 -100 -124 -142 -168 -186 -195 -31 -19 -80 -50 -109 -69 -29 -18 -77 -47
-107 -64 -30 -16 -87 -51 -125 -77 -39 -25 -77 -49 -85 -53 -8 -4 -27 -15 -41
-25 -15 -9 -53 -33 -84 -52 -31 -19 -67 -42 -79 -50 -78 -52 -106 -70 -111
-70 -2 0 -31 -18 -62 -40 -51 -35 -65 -40 -115 -40 -49 0 -60 -4 -85 -28 -15
-16 -43 -59 -61 -97 -19 -37 -63 -107 -98 -154 -93 -125 -114 -173 -114 -257
0 -45 7 -83 19 -109 18 -40 91 -115 113 -115 24 0 85 81 138 183 30 59 89 158
131 219 l76 112 274 103 c731 274 878 335 940 386 54 44 323 233 358 252 14 8
184 126 376 263 l350 250 6 -281 c4 -155 9 -478 13 -718 6 -478 10 -439 -54
-574 -15 -33 -56 -123 -90 -200 -34 -77 -77 -173 -96 -213 -19 -40 -34 -76
-34 -78 0 -3 -16 -40 -36 -82 -20 -41 -54 -116 -76 -166 -22 -50 -51 -115 -64
-144 -13 -29 -24 -57 -24 -61 0 -5 -14 -35 -30 -66 -17 -31 -30 -63 -30 -70 0
-7 -17 -45 -38 -86 -21 -41 -44 -90 -51 -109 -41 -108 -89 -190 -148 -253 -55
-59 -63 -72 -63 -107 0 -26 7 -47 23 -64 25 -28 340 -224 374 -232 27 -7 140
43 154 68 12 22 2 43 -43 84 -48 45 -79 64 -105 64 -21 0 -23 5 -23 51 0 54
16 92 78 181 17 26 32 51 32 54 0 3 23 40 50 81 28 41 50 77 50 79 0 3 20 35
43 72 81 124 117 182 117 188 0 3 24 42 53 87 169 260 528 857 575 956 95 199
179 440 261 746 49 183 74 306 100 495 18 131 24 187 36 318 2 23 10 48 17 56
8 7 64 266 132 602 64 324 130 641 146 704 71 281 191 561 347 808 18 29 31
57 28 62 -3 5 0 12 6 16 8 5 9 3 4 -6 -5 -9 -4 -11 4 -6 6 4 9 12 6 17 -4 5
-1 9 4 9 6 0 11 5 11 11 0 8 -5 8 -15 -1 -8 -7 -15 -9 -15 -4 0 5 -5 2 -10 -6
-8 -13 -10 -12 -10 4 0 16 -2 17 -17 5 -11 -10 -14 -10 -9 -1 4 7 1 12 -8 12
-9 0 -16 5 -16 12 0 8 -33 10 -117 7 -65 -3 -101 -3 -80 -1 20 2 37 8 37 14 0
6 -18 8 -47 5 -53 -5 -527 18 -693 33 -58 6 -132 10 -163 10 -35 0 -57 4 -57
11 0 8 -22 9 -76 4 -49 -4 -79 -3 -83 3 -8 13 -407 30 -427 19 -17 -9 -80 24
-77 40 1 6 -8 8 -21 6 -13 -3 -30 2 -39 12 -10 9 -17 12 -17 7z"/>
<path d="M4088 6603 c7 -3 16 -2 19 1 4 3 -2 6 -13 5 -11 0 -14 -3 -6 -6z"/>
<path d="M3468 6573 c12 -2 32 -2 45 0 12 2 2 4 -23 4 -25 0 -35 -2 -22 -4z"/>
<path d="M5236 6484 c-9 -23 -8 -24 12 -23 9 0 12 3 5 5 -7 3 -9 12 -6 20 3 8
3 14 0 14 -3 0 -8 -7 -11 -16z"/>
</g>
</svg>
